<svg width="200" height="300" viewBox="0 0 200 300" fill="none" xmlns="http://www.w3.org/2000/svg">
<g clip-path="url(#clip0)">
<path fill-rule="evenodd" clip-rule="evenodd" d="M192 147.5C192 198.586 150.586 240 99.5 240C48.4137 240 7 198.586 7 147.5C7 96.4137 48.4137 55 99.5 55C150.586 55 192 96.4137 192 147.5ZM160.837 167.506C162.89 161.208 164 154.484 164 147.5C164 111.878 135.122 83 99.5 83C63.8776 83 35 111.878 35 147.5C35 176.326 53.9094 200.735 80.0005 209C80.0002 209 80 209 80 209C80.0965 209.058 80.1981 209.117 80.3045 209.179C82.9541 210.726 88.5 213.965 88.5 238C88.5 238 108 233 138 204.5C150.995 192.155 157.576 178.825 160.837 167.506Z" fill="white"/>
</g>
<defs>
<clipPath id="clip0">
<rect width="200" height="300" fill="white"/>
</clipPath>
</defs>
</svg>
